<?xml version="1.0" encoding="utf-8"?>
<!-- Generator: Adobe Illustrator 16.0.0, SVG Export Plug-In . SVG Version: 6.00 Build 0)  -->
<!DOCTYPE svg PUBLIC "-//W3C//DTD SVG 1.1//EN" "http://www.w3.org/Graphics/SVG/1.1/DTD/svg11.dtd">
<svg version="1.1" id="Capa_1" xmlns="http://www.w3.org/2000/svg" xmlns:xlink="http://www.w3.org/1999/xlink" x="0px" y="0px"
	 width="570px" height="294px" viewBox="0 0 570 294" enable-background="new 0 0 570 294" xml:space="preserve">
<path fill-rule="evenodd" clip-rule="evenodd" fill="#FFFFFF" d="M286.632,178.104c11.743,0,23.947-0.604,36.059,0.188
	c9.951,0.651,19.936,0.268,29.872,1.496c6.075,0.752,12.27,0.723,18.404,1.041c10.125,0.525,20.201,1.564,30.282,2.45
	c14.692,1.292,29.355,3.026,43.979,4.968c15.239,2.023,30.461,4.255,45.607,6.877c16.275,2.819,32.466,6.138,48.669,9.362
	c6.805,1.354,13.547,3.02,20.314,4.561c1.125,0.256,2.225,0.625,3.35,0.884c0.901,0.208,1.595,0.815,1.414,1.62
	c-0.208,0.922-1.008,0.816-1.952,0.603c-6.769-1.529-13.578-2.876-20.352-4.381c-11.445-2.543-22.927-4.89-34.485-6.87
	c-10.583-1.813-21.122-3.892-31.715-5.643c-7.665-1.268-15.384-2.21-23.083-3.262c-9.347-1.276-18.695-2.532-28.047-3.761
	c-3.618-0.476-7.269-0.783-10.89-1.107c-13.216-1.183-26.407-2.658-39.666-3.426c-11.108-0.645-22.222-1.278-33.322-1.98
	c-15.473-0.979-30.949-0.645-46.416-1.168c-18.419-0.624-36.825,0.321-55.231,0.623c-12.446,0.204-24.88,1.368-37.329,1.972
	c-8.281,0.402-16.545,1.326-24.82,1.979c-12.55,0.99-25.071,2.429-37.573,3.939c-12.32,1.487-24.646,3.027-36.886,5.048
	c-12.87,2.124-25.749,4.209-38.576,6.624c-17.859,3.363-35.661,6.952-53.381,10.98c-0.928,0.211-3.077,2.074-3.537-0.357
	c-0.412-2.177,2.154-1.83,3.301-2.104c9.164-2.181,18.377-4.163,27.594-6.114c8.076-1.711,16.15-3.458,24.274-4.908
	c10.58-1.889,21.233-3.36,31.807-5.276c7.812-1.417,15.696-2.318,23.52-3.668c8.968-1.546,18.085-2.225,27.14-3.268
	c7.902-0.91,15.808-1.786,23.708-2.711c3.794-0.444,7.61-0.427,11.418-0.95c5.581-0.767,11.247-0.921,16.878-1.311
	c8.446-0.584,16.894-1.147,25.341-1.714c0.998-0.067,1.997-0.109,2.996-0.146C245.597,178.454,265.891,177.558,286.632,178.104z"/>
<path fill-rule="evenodd" clip-rule="evenodd" fill="#FFFFFF" d="M523.982,54.295c-3.445-0.452-6.896-0.861-10.349-1.251
	c-6.573-0.743-13.19-1.208-19.714-2.253c-8.185-1.31-16.443-1.935-24.666-2.627c-10.892-0.917-21.775-2.222-32.74-2.288
	c-1.833-0.011-3.66-0.42-5.162-0.729c0,0.938,0,1.875,0,2.813c6.658-0.093,13.287,0.748,19.882,1.286
	c12.513,1.021,25.043,2.013,37.528,3.495c10.829,1.285,21.676,2.416,32.469,4.006c0.819,0.121,1.656,0.144,2.486,0.174
	c0.671,0.024,1.363-0.058,1.521-0.868C525.43,55.075,524.933,54.42,523.982,54.295z"/>
<path fill-rule="evenodd" clip-rule="evenodd" fill="#FFFFFF" d="M285.945,45.433"/>
<path fill-rule="evenodd" clip-rule="evenodd" fill="#FFFFFF" d="M285.945,43.699"/>
<g>
	<path fill-rule="evenodd" clip-rule="evenodd" fill="#FFFFFF" d="M346.061,287.605c-8.951,0.672-17.834,0.301-26.684-1.338
		c-10.248-1.897-20.543-3.615-31.023-3.271c-7.1,0.233-14.249,0.421-20.714,4.018c-1.054,0.587-2.189,0.73-3.363,0.719
		c-6.471-0.063-12.941-0.142-19.413-0.183c-1.288-0.008-1.788-0.607-1.694-1.828c-0.001-3.561-0.001-7.121-0.001-10.682
		c-0.342-2.789,2.032-3.267,3.723-3.964c4.749-1.958,9.562-3.751,14.252-5.87c2.773-1.254,5.126-2.987,7.468-4.852
		c4.806-3.828,5.492-9.006,4.424-14.447c-0.779-3.973-3.791-6.604-7.398-8.215c-3.927-1.752-7.991-3.201-12.026-4.702
		c-1.844-0.687-3.708-1.38-5.266,0.796c-0.9,1.26-2.463,0.819-3.747,0.692c-8.618-0.851-17.039-2.685-24.962-6.198
		c-8.328-3.695-16.667-7.445-24.257-12.565c-4.688-3.162-8.742-6.992-11.502-12.404c7.251,0,14.066-0.438,20.804,0.103
		c10.297,0.826,20.586,0.787,30.885,0.762c3.814-0.01,7.634-0.268,11.437-0.586c0.601-0.051,0.909,0.076,1.221,0.366
		c0.866,0.805,1.261,5.201,0.563,6.179c-0.171,0.238-0.484,0.402-0.764,0.535c-5.809,2.768-12.797,3.812-19.776,2.758
		c-10.635-1.605-21.138-3.864-31.494-6.773c-2.832-0.796-5.673-1.475-8.942-1.65c1.491,2.482,3.752,3.261,5.74,4.389
		c7.328,4.158,15.396,6.023,23.559,7.61c9.181,1.785,18.46,2.126,27.776,2.039c3.842-0.036,3.851-0.005,3.918,3.884
		c0.013,0.695,0.166,1.302,0.885,1.997c0.742-2.591,1.247-4.979,1.015-7.643c-0.39-4.462-0.295-8.964-0.529-13.443
		c-0.119-2.251,0.866-2.879,2.951-2.761c1.818,0.104,3.66-0.044,5.482-0.192c2.097-0.171,3.857-0.984,4.826-3.013
		c1.086-0.921,2.356-0.991,3.721-0.968c3.83,0.065,7.662,0.026,11.493,0.024c7.495-0.002,14.991-0.016,22.487-0.002
		c1.436,0.002,2.9-0.369,3.113,2.047c0.143,1.607,1.744,2.431,3.449,1.643c2.174-1.006,4.863-0.668,6.279-2.715
		c1.73,0.668,0.467,2.479,1.801,3.021l0.258,0.031l0.043,0.255c0.84,1.257,2.119,0.675,3.193,0.677
		c19.246,0.036,38.492,0.029,57.738,0.031c1.59,0.109,3.275-0.566,5.006,0.692c-1.986,2.196-4.492,2.39-7.068,2.493
		c-8.699,0.35-17.395,0.477-26.094,1.22c-8.387,0.716-16.885,1.251-25.295-0.306c-1.016-0.188-2.08-0.357-2.404,0.953
		c-0.484,1.964-1.848,1.965-3.459,1.895c-1.979-0.088-3.988-0.234-6.094,0.404c1.066,2.391,3.543,1.029,5.301,2.147
		c-1.756,1.224-3.852-0.294-5.4,0.891c0.354,1.106,1.248,1.471,2.27,1.669c1.135,0.22,2.295,0.355,3.393,0.695
		c2.904,0.898,3.184,1.369,3.234,4.982c2.047-0.469,3.373-1.906,4.842-3.17c2.811-2.42,5.514-4.157,9.807-2.813
		c4.287,1.343,8.846-0.038,13.238-1.055c4.002-0.925,7.752-3.035,12.039-2.651c2.42-0.023,4.842-0.146,7.254-0.027
		c1.16,0.057,2.617-0.791,3.471,0.77c-6.809,1.333-13.695,2.363-20.41,4.068c-10.383,2.637-20.119,6.654-27.453,15.023
		c-2.803,3.197-4.633,6.931-5.889,10.852c-0.625,1.955-1.697,3.402-2.793,5.193c-0.871-2.101-0.123-4.497-1.969-6.229
		c-2.787,1.061-4.127,3.596-5.725,5.865c-1.838,2.613-1.832,2.617-4.615,0.672c-0.873,1.302-0.709,2.598,0.393,3.535
		c0.979,0.831,2.201,0.398,3.281-0.105c0.297-0.139,0.539-0.389,0.83-0.547c5.584-3.059,5.936-3.018,8.758,2.902
		c2.156,4.524,4.213,9.117,8.785,11.717c2.865,1.628,5.93,2.928,8.975,4.209c2.74,1.153,5.59,2.041,8.359,3.127
		c1.365,0.535,2.855,0.948,3.748,2.491c-3.197,3.753-7.311,0.335-11.516,1.173c3.15,2.387,6.076,2.07,8.875,1.459
		c1.531-0.336,2.922-0.215,4.383-0.023c0.025,2.961,0.053,5.92,0.078,8.88c-0.012,0.331-0.104,0.636-0.275,0.918
		C345.99,286.174,346.104,286.926,346.061,287.605z M262.927,226.746c0.245-1.283-0.211-2.645,0.438-3.881
		c1.642-2.026,0.488-4.28,0.523-6.438c-0.02-2-0.04-4-0.06-6.001c0.09-0.641,0.22-1.279,0.258-1.923
		c0.039-0.66-0.098-1.385-0.884-1.438c-1.205-0.082-1.092,0.906-1.104,1.684c-0.008,0.481,0.102,0.965,0.158,1.447
		c-0.033,1.896-0.067,3.791-0.101,5.686c-0.351-0.002-0.701-0.006-1.052-0.009c-0.853-4.502,0.973-9.317-1.411-13.659
		c-1.906,8.752-0.573,17.739-2.618,26.444c-0.513,2.187,0.93,3.679,3.287,4.059c1.145-1.547,0.221-3.301,0.739-4.831
		c1.788,0.611,0.557,2.281,1.168,3.293c0.144,0.236,0.47,0.469,0.733,0.496c0.251,0.026,0.731-0.176,0.767-0.348
		C264.102,229.7,264.973,227.94,262.927,226.746z M313.563,265.379c-0.781-2.475-1.615-3.658-1.453-5.281
		c0.457-4.595-0.35-5.678-4.836-7.664c-0.342,1.454-0.846,2.879-0.98,4.338c-0.213,2.286-0.727,4.762,0.973,6.691
		C308.668,265.053,310.848,264.24,313.563,265.379z M288.043,255.912c-2.342,0.813-3.525,2.24-4.88,3.418
		c-3.316,2.885-6.696,5.352-11.532,3.688c-1.021-0.352-2.621-0.584-3.152,1.133c1.31,1.396,3.436-0.147,4.365,1.311
		c0.231,1.439-1.583,1.809-0.979,3.402c4.136-3.121,8.292-6.041,13.695-6.023c0.68,0.002,1.324-0.525,1.189-1.287
		C286.418,259.677,288.168,258.293,288.043,255.912z M284.689,278.91c8.229,1.748,19.598,1.963,23.389,0.389
		C300.277,276.68,292.93,276.316,284.689,278.91z M248.617,274.314c4.899,0.451,9.728,0.428,15.21-1.734
		C257.64,270.035,253.19,272.589,248.617,274.314z M319.674,269.867c7.086,4.59,7.086,4.59,10.129,3.361
		C326.199,272.381,323.896,270.203,319.674,269.867z"/>
	<path fill-rule="evenodd" clip-rule="evenodd" fill="#FFFFFF" d="M315.775,200.922c-1.334-0.543-0.07-2.354-1.801-3.021
		c-1.416,2.047-4.105,1.709-6.279,2.715c-1.705,0.788-3.307-0.035-3.449-1.643c-0.213-2.416-1.678-2.045-3.113-2.047
		c-7.496-0.014-14.992,0-22.487,0.002c-3.831,0.002-7.663,0.041-11.493-0.024c-1.364-0.023-2.635,0.047-3.721,0.968
		c0.059-0.467-0.053-1.102,0.21-1.366c0.631-0.634,1.548-0.415,2.366-0.416c12.957-0.003,25.914-0.061,38.869,0.041
		c3.121,0.024,6.246,0.518,9.357,0.905C316.977,197.377,315.684,199.455,315.775,200.922z"/>
	<path fill-rule="evenodd" clip-rule="evenodd" fill="#FFFFFF" d="M377.008,201.916c-19.246-0.002-38.492,0.005-57.738-0.031
		c-1.074-0.002-2.354,0.58-3.193-0.677c12.773-0.071,25.549-0.187,38.324-0.196c6.965-0.005,13.932,0.178,20.896,0.244
		C375.988,201.262,376.604,201.26,377.008,201.916z"/>
	<path fill-rule="evenodd" clip-rule="evenodd" fill="#FFFFFF" d="M371.047,210.705c-0.854-1.561-2.311-0.713-3.471-0.77
		c-2.412-0.119-4.834,0.004-7.254,0.027c2.158-1.62,4.68-0.883,7.039-1.004c3.74-0.191,7.594,0.533,11.004-1.769
		c0.367-0.247,0.967-0.06,1.514,0.764C377.313,210.031,374.264,210.6,371.047,210.705z"/>
	<path fill-rule="evenodd" clip-rule="evenodd" fill="#FFFFFF" d="M262.156,215.883c0.562,3.6-0.679,7.326,0.771,10.863
		c2.046,1.194,1.175,2.954,0.843,4.582c-0.035,0.172-0.516,0.374-0.767,0.348c-0.264-0.027-0.59-0.26-0.733-0.496
		c-0.611-1.012,0.62-2.682-1.168-3.293c-0.291-4.004-0.318-8.009,0.003-12.013C261.455,215.877,261.806,215.881,262.156,215.883z"/>
	<path fill-rule="evenodd" clip-rule="evenodd" fill="#FFFFFF" d="M263.829,210.427c-0.524-0.076-1.048-0.152-1.572-0.229
		c-0.057-0.482-0.166-0.966-0.158-1.447c0.013-0.777-0.101-1.766,1.104-1.684c0.786,0.053,0.923,0.777,0.884,1.438
		C264.049,209.147,263.919,209.786,263.829,210.427z"/>
</g>
<g>
	<path fill-rule="evenodd" clip-rule="evenodd" fill="#FFFFFF" d="M255.783,78.629c0.482-2.471,1.108-4.202,1.114-5.936
		c0.07-19.652,0.084-39.305-0.015-58.957c-0.01-2.058-0.839-4.111-1.407-6.714c5.543,0,11.181-0.013,16.818,0.014
		c0.795,0.003,1.59,0.19,2.654,0.327c-0.3,0.854-0.499,1.437-0.709,2.016c-1.387,3.831-1.223,7.333,1.411,10.762
		c4.256,5.543,8.23,11.302,12.35,16.95c0.66,0.906,1.459,1.711,2.631,3.068c0-9.659,0.074-18.637-0.064-27.61
		c-0.027-1.705-0.893-3.396-1.445-5.357c6.439,0,12.711,0,19.639,0c-2.486,3.998-1.91,8.073-1.914,12.077
		c-0.016,16.821,0.043,33.643-0.051,50.464c-0.02,3.254,0.057,6.309,2.924,8.628c-3.824,0.976-15.768,0.993-20.887,0.049
		c0.406-0.944,0.869-1.8,1.148-2.713c1.045-3.438,1.43-6.935-0.789-10.03c-4.834-6.742-9.821-13.375-15.237-20.72
		c-0.234,1.884-0.474,2.943-0.479,4.004c-0.034,6.828,0.082,13.658-0.06,20.484c-0.071,3.414,0.098,6.623,3.412,9.41
		c-13.93,0.354-27.151,0.689-40.867,1.037c1.105-5.505-0.887-10.362-2.368-15.814c-5.556,0.326-10.985,0.646-16.855,0.991
		c-1.077,5.263-3.903,9.991-2.067,15.969c-6.365,0.487-12.594,0.965-19.357,1.483c5.493-8.839,6.466-18.509,9.234-27.578
		c3.734-12.232,6.938-24.63,10.211-36.998c0.69-2.61,0.688-5.402,1.095-8.865c5.84-0.346,12.398-0.734,19.184-1.137
		c-0.109,2.271-0.388,4.048-0.222,5.782c0.157,1.633,0.75,3.23,1.206,4.827c4.965,17.419,9.941,34.834,14.915,52.25
		C251.707,73.494,252.394,76.242,255.783,78.629z M225.499,37.542c-0.276-0.03-0.554-0.061-0.83-0.09
		c-1.257,4.463-2.513,8.926-3.824,13.583c3.178,0,5.857,0,8.788,0C228.166,46.247,226.833,41.894,225.499,37.542z"/>
	<path fill-rule="evenodd" clip-rule="evenodd" fill="#FFFFFF" d="M382.59,11.091c2.119,0.114,4.428,0.163,6.721,0.379
		c4.084,0.383,8.16,0.865,12.691,1.355c-1.662,3.843-0.465,7.094,0.463,10.441c4.791,17.272,9.432,34.588,14.244,51.854
		c1.102,3.949,2.676,7.767,4.07,11.756c-5.793-0.631-11.998-1.306-18.629-2.028c1.766-5.653-0.895-10.48-1.941-16.114
		c-5.531-0.547-11.064-1.094-16.84-1.665c-1.471,5.158-3.742,9.825-2.336,15.601c-3.391-0.172-6.465-0.275-9.529-0.499
		c-3.119-0.229-6.229-0.575-10.008-0.933c3.467-3.596,4.299-7.647,5.426-11.605c4.639-16.28,9.391-32.529,13.977-48.824
		C381.723,17.883,381.963,14.794,382.59,11.091z M391.832,40.558c-0.244,0.023-0.488,0.047-0.732,0.07
		c-1.242,4.437-2.484,8.872-3.805,13.582c3.164,0.364,5.709,0.657,8.902,1.024C394.596,49.854,393.213,45.206,391.832,40.558z"/>
	<path fill-rule="evenodd" clip-rule="evenodd" fill="#FFFFFF" d="M196.129,30.435c-5.448,0.438-10.203,0.821-15.068,1.213
		c-0.167-0.661-0.317-1.101-0.387-1.552c-0.518-3.379-2.482-5.075-5.588-4.806c-4.165,0.362-7.829,5.287-6.959,9.388
		c0.489,2.304,1.85,3.762,4.125,4.558c4.705,1.645,9.289,3.669,14.052,5.108c5.463,1.651,8.315,5.535,9.386,10.648
		c3.811,18.202-11.5,32.059-28.633,28.997c-6.876-1.228-11.501-5.74-14.098-12.195c-0.797-1.981-1.244-4.104-1.849-6.147
		c2.938-1.363,9.886-2.347,16.005-2.294c0.176,0.24,0.532,0.508,0.5,0.716c-0.782,5.087,1.419,7.57,6.443,7.16
		c3.601-0.294,6.258-2.068,7.903-5.293c2.447-4.795,1.04-9.037-3.98-10.977c-5.42-2.094-10.923-4.022-16.499-5.648
		c-4.148-1.21-6.401-3.874-7.673-7.749c-3.835-11.688,2.888-24.515,14.928-28.101c2.672-0.796,5.553-1.166,8.349-1.228
		c8.629-0.191,14.609,4.084,17.392,12.186C195.063,26.124,195.441,27.899,196.129,30.435z"/>
	<path fill-rule="evenodd" clip-rule="evenodd" fill="#FFFFFF" d="M327.783,79.417c0.393-3.096,1.02-5.807,1.037-8.522
		c0.1-14.642,0.047-29.284,0.047-43.927c0-1.62,0-3.24,0-5.037c-5.582-0.617-10.66-1.496-15.818,1.252c0-5.395,0-10.461,0-15.971
		c15.801,0.032,31.314,1.151,47.113,2.125c0,5.237,0,10.176,0,15.563c-4.623-2.08-9.459-2.187-14.635-2.499
		c-0.166,1.567-0.414,2.84-0.416,4.114c-0.027,15.308-0.074,30.616,0.039,45.923c0.018,2.405,0.791,4.804,1.223,7.248
		C343.371,80.5,333.879,80.404,327.783,79.417z"/>
</g>
<g>
	<path fill-rule="evenodd" clip-rule="evenodd" fill="#FFFFFF" d="M220.304,114.539c-6.313,6.249-9.836,13.319-15.021,19.886
		c-4.943-6.357-9.757-12.548-15.175-19.518c0,6.841,0,12.654,0,18.468c0,5.994-0.115,11.991,0.055,17.981
		c0.072,2.545,0.742,5.074,1.159,7.729c-2.502,0.984-14.954,2.188-18.454,1.764c0.365-3.412,1.021-6.803,1.041-10.197
		c0.106-17.481,0.099-34.964-0.002-52.446c-0.016-2.731-0.714-5.459-1.158-8.635c6.063-1.345,12.813-1.16,19.942-2.161
		c-0.388,1.599-0.708,2.919-1.08,4.45c4.459,5.388,8.993,10.864,13.637,16.474c4.378-5.927,8.207-11.592,12.583-16.799
		c1.743-2.074-0.071-3.763,0.63-6.027c6.386,0,12.809,0,19.623,0c-1.853,4.272-1.195,8.855-1.208,13.384
		c-0.047,16.15-0.026,32.301-0.012,48.452c0.003,3.133-0.52,6.371,2.633,9.512c-7.436,0.262-13.83,0.488-20.764,0.732
		c2.105-4.363,1.549-8.65,1.563-12.884c0.028-8.158,0.009-16.317,0.009-24.476C220.304,118.631,220.304,117.037,220.304,114.539z"/>
	<path fill-rule="evenodd" clip-rule="evenodd" fill="#FFFFFF" d="M473.116,171.178c-6.55-0.82-13.1-1.639-20.198-2.525
		c0.738-1.723,1.461-2.816,1.667-4.002c0.574-3.299,0.794-6.58-1.237-9.607c-4.636-6.906-9.197-13.861-13.815-20.778
		c-0.25-0.376-0.749-0.585-1.676-1.279c0,2.927,0,5.385,0,7.843c0,5.494,0.042,10.988-0.017,16.482
		c-0.031,3.014-0.124,6.002,3.258,9.053c-7.746-0.162-14.149-1.768-21.143-2.32c2.309-5.98,1.313-11.904,1.362-17.756
		c0.123-14.815,0.08-29.631,0.009-44.448c-0.015-3.073-0.44-6.146-0.718-9.761c6.09,0.76,12.45,1.554,18.66,2.329
		c-0.504,2.453-1.257,4.655-1.314,6.876c-0.045,1.717,0.391,3.701,1.29,5.144c4.486,7.197,9.2,14.254,13.824,21.366
		c0.271,0.418,0.455,0.894,0.68,1.342c0.318-0.1,0.637-0.199,0.956-0.299c0.067-1.017,0.192-2.032,0.194-3.049
		c0.019-6.492,0.116-12.987-0.037-19.477c-0.072-3.075-0.642-6.139-1.041-9.705c5.883,0.901,12.159,1.862,18.938,2.901
		c-2.41,4.202-1.731,8.625-1.741,12.967c-0.033,15.149-0.023,30.299-0.006,45.448c0.005,4.547-0.601,9.199,2.034,13.35
		L473.116,171.178z"/>
	<path fill-rule="evenodd" clip-rule="evenodd" fill="#FFFFFF" d="M305.95,84.022c-2.889,5.293-2.771,9.493,0.458,13.743
		c4.129,5.434,7.926,11.119,11.898,16.673c0.649,0.907,1.468,1.693,2.39,2.741c1.188-12.453,0.6-27.52-1.393-32.937
		c6.631,0.353,13.062,0.694,19.089,1.015c-0.414,3.45-1.106,6.635-1.127,9.824c-0.109,17.165-0.062,34.33-0.044,51.497
		c0.004,3.615-0.763,7.457,3.372,10.025c-0.26,0.236-0.521,0.473-0.78,0.709c-6.744-0.338-13.487-0.676-20.666-1.035
		c0.588-1.311,1.107-2.135,1.331-3.031c0.858-3.441,1.354-6.98-0.822-10.08c-4.865-6.928-9.899-13.735-15.381-21.303
		c-0.167,2.101-0.346,3.332-0.351,4.563c-0.027,6.833,0.1,13.669-0.063,20.497c-0.077,3.281,0.13,6.305,3.494,8.953
		c-7.495,0-14.189,0-21.363,0c2.294-6.389,1.265-12.667,1.321-18.875c0.135-14.998,0.078-29.998,0.009-44.996
		c-0.011-2.435-0.478-4.867-0.763-7.58c0.019-0.009,0.438-0.376,0.858-0.379C293.396,84.01,299.372,84.022,305.95,84.022z"/>
	<path fill-rule="evenodd" clip-rule="evenodd" fill="#FFFFFF" d="M473.045,171.271c2.816-0.939,4.155-3.174,4.93-5.805
		c5.398-18.33,10.813-36.656,16.075-55.025c0.6-2.093,0.288-4.446,0.417-7.049c6.528,1.308,12.957,2.597,18.67,3.741
		c0.362,3.406,0.32,6.204,0.99,8.819c5.031,19.636,10.162,39.248,15.373,58.835c0.715,2.688,2.044,5.213,3.258,8.234
		c-6.146-0.605-12.051-2.357-18.459-3.699c1.539-4.824-0.577-9.127-1.317-13.609c-0.263-1.588-0.935-2.855-2.687-3.184
		c-4.727-0.891-9.455-1.77-14.442-2.699c-2.012,4.912-3.748,9.609-2.596,15.355c-4.996-0.855-9.532-1.578-14.042-2.432
		c-2.059-0.391-4.067-1.045-6.099-1.578L473.045,171.271z M503.678,132.803c-1.547,5.319-2.813,9.679-4.204,14.462
		c3.028,0.609,5.642,1.137,8.852,1.783C506.728,143.464,505.336,138.6,503.678,132.803z"/>
	<path fill-rule="evenodd" clip-rule="evenodd" fill="#FFFFFF" d="M281.612,84.058c0,5.261,0,10.02,0,15.195
		c-7.32-2.115-14.513-0.802-21.971-1.084c0,4.68,0,8.937,0,13.518c4.417,0.835,8.748,0.75,12.92-1.279
		c1.097,3.531,1.205,11.91,0.193,16.931c-4.249-1.669-8.598-1.316-13.174-0.984c0,5.315,0,10.236,0,15.765
		c7.382-0.347,14.618,0.981,21.978-1.877c0,5.201,0,10.098,0,14.967c-3.276,0.906-34.41,1.518-39.215,0.871
		c0.278-3.086,0.777-6.131,0.791-9.178c0.077-17.145,0.095-34.29-0.012-51.433c-0.021-3.403-0.667-6.803-1.092-10.829
		c3.778-0.572,8.186-0.302,12.554-0.415c4.492-0.117,8.986-0.136,13.48-0.162C272.506,84.038,276.946,84.058,281.612,84.058z"/>
	<path fill-rule="evenodd" clip-rule="evenodd" fill="#FFFFFF" d="M167.909,146.035c0,5.436,0,10.379,0,15.697
		c-13.163,1.572-26.257,3.135-40.19,4.797c2.593-4.162,2.126-7.982,2.129-11.734c0.013-15.974,0.005-31.949,0.006-47.923
		c0-3.96,0.389-7.973-2.289-12.086c13.628-2.153,26.714-3.648,40.208-4.89c0,5.208,0,10.113,0,15.428
		c-7.147-1.911-14.004,0.514-21.537,0.945c-0.343,4.469-0.208,8.863-0.067,13.635c4.617-0.039,8.942-0.396,13.354-2.971
		c0.866,3.044,0.374,5.805,0.461,8.49c0.091,2.802,0.021,5.607,0.021,8.211c-4.719,0.121-9.062,0.233-13.674,0.352
		c0,5.605,0,10.658,0,16.254C153.467,148.85,160.714,149.756,167.909,146.035z"/>
	<path fill-rule="evenodd" clip-rule="evenodd" fill="#FFFFFF" d="M85.392,126.391c-6.119,1.112-11.637,2.115-17.664,3.21
		c0.201-1.914,0.45-3.321,0.476-4.731c0.052-2.855-1.616-4.646-4.475-4.976c-3.318-0.383-6.415,1.329-7.52,4.526
		c-0.583,1.689-0.795,3.578-0.811,5.38c-0.079,8.826-0.036,17.653-0.036,26.479c0,0.334-0.009,0.668,0.003,1
		c0.164,4.365,1.532,6.363,4.538,6.639c3.71,0.338,7.932-2.811,8.288-6.391c0.213-2.133,0.039-4.307,0.039-6.896
		c5.393-1.023,10.869-2.064,16.985-3.227c-0.657,4.441-0.721,8.629-1.945,12.445c-3.735,11.633-17.524,19.939-29.591,18.27
		c-8.223-1.139-13.914-6.926-14.2-15.52c-0.365-10.979-0.557-22.004,0.02-32.965c0.822-15.619,18.456-27.921,32.995-23.515
		c6.838,2.072,11.097,6.439,11.857,13.807C84.552,121.875,84.968,123.802,85.392,126.391z"/>
	<path fill-rule="evenodd" clip-rule="evenodd" fill="#FFFFFF" d="M376.817,159.127c-0.492,0.08-1.121,0.301-1.733,0.262
		c-5.791-0.369-11.579-0.781-16.861-1.146c0.372-3.258,0.968-6.141,0.987-9.025c0.098-14.493,0.045-28.985,0.045-43.477
		c0-1.633,0-3.265,0-5.166c-5.459-0.466-10.509-1.449-15.808,0.684c0-5.327,0-10.389,0-16.026c15.787,1.149,31.3,2.279,46.962,3.42
		c0.837,5.497,0.295,10.409,0.387,15.144c-4.985-0.823-9.629-1.589-14.652-2.418c-0.174,1.81-0.399,3.077-0.401,4.346
		c-0.024,15.325-0.062,30.65,0.031,45.975C375.788,154.098,376.431,156.494,376.817,159.127z"/>
	<path fill-rule="evenodd" clip-rule="evenodd" fill="#FFFFFF" d="M88.096,100.769c7.621-1.239,13.834-2.25,20.752-3.376
		c-2.41,4.255-1.831,8.511-1.837,12.705c-0.019,13.329-0.007,26.659-0.007,39.99c0,1.623,0,3.248,0,5.436
		c3.328-0.471,6.101-0.699,8.793-1.291c2.708-0.598,5.336-1.557,8.216-2.422c0,4.902,0,9.842,0,15.279
		c-11.508,1.805-23.013,3.801-34.218,5.27c0.406-3.703,1.046-6.928,1.065-10.156c0.102-17.163,0.054-34.325,0.043-51.487
		C90.901,107.438,91.485,104.049,88.096,100.769z"/>
	<path fill-rule="evenodd" clip-rule="evenodd" fill="#FFFFFF" d="M417.605,163.662c-7.978-0.857-14.658-1.574-22.173-2.383
		c2.853-3.76,2.354-7.432,2.355-11.031c0.007-17.145,0.053-34.292-0.045-51.438c-0.017-2.907-0.67-5.812-1.095-9.255
		c2.785,0.224,5.959,0.419,9.119,0.747c3.296,0.343,6.58,0.813,9.307,1.156c-0.368,3.198-1.006,6.244-1.023,9.293
		c-0.097,17.645-0.015,35.291-0.076,52.936C413.963,157.025,413.904,160.279,417.605,163.662z"/>
</g>
<path fill-rule="evenodd" clip-rule="evenodd" fill="#FFFFFF" d="M39.726,54.295c3.445-0.451,6.896-0.861,10.349-1.251
	c6.573-0.743,13.19-1.208,19.714-2.253c8.185-1.311,16.443-1.936,24.666-2.627c10.892-0.918,21.775-2.223,32.74-2.288
	c1.833-0.011,3.66-0.42,5.162-0.729c0,0.938,0,1.876,0,2.814c-6.658-0.094-13.287,0.747-19.882,1.285
	c-12.513,1.021-25.043,2.014-37.528,3.495c-10.829,1.285-21.676,2.415-32.469,4.006c-0.819,0.12-1.656,0.144-2.486,0.175
	c-0.671,0.023-1.363-0.059-1.521-0.869C38.278,55.074,38.775,54.42,39.726,54.295z"/>
</svg>
